<?xml version="1.0" encoding="utf-8"?>
<!-- Generator: Adobe Illustrator 23.1.0, SVG Export Plug-In . SVG Version: 6.00 Build 0)  -->
<svg version="1.1" id="Camada_1" xmlns="http://www.w3.org/2000/svg" xmlns:xlink="http://www.w3.org/1999/xlink" x="0px" y="0px"
	 viewBox="0 0 125.2 144.4" style="enable-background:new 0 0 125.2 144.4;" xml:space="preserve">
<style type="text/css">
	.st0{clip-path:url(#SVGID_2_);}
	.st1{fill:#C4A149;}
	.st2{fill:#414041;}
	.st3{fill:#F7D9CD;}
	.st4{fill:#010001;}
	.st5{fill:#F4CCBD;}
	.st6{fill:#9F843E;}
	.st7{fill:#9F853E;}
	.st8{fill:#A0853E;}
	.st9{fill:#F4CCBC;}
	.st10{fill:#A2873F;}
	.st11{fill:#A3883F;}
	.st12{fill:#C8A496;}
	.st13{fill:#C8A597;}
</style>
<title>fernanda-square-2</title>
<g>
	<defs>
		<rect id="SVGID_1_" x="-19.7" y="-15.4" width="158.2" height="159.8"/>
	</defs>
	<clipPath id="SVGID_2_">
		<use xlink:href="#SVGID_1_"  style="overflow:visible;"/>
	</clipPath>
	<g class="st0">
		<path class="st1" d="M26.3,86.4c-0.4-0.2-0.8-0.3-1.2-0.1c-1.6,0.4-3.3,0.2-4.8-0.3c-2.7-0.9-3.5-5-1.3-6.6
			c0.8-0.6,1.5-1.3,2.3-1.9c0.6-0.4,0.7-0.7,0.1-1.2c-0.6-0.5-1.2-0.8-1-1.5c0.2-0.7,1.2-0.7,1.9-0.7c0.9,0,1.7,0,2.7,0
			c-0.1-0.8-0.7-0.8-1.2-0.8c-2.5-0.2-4.8-1.3-6.5-3.2c-1.5-1.6-2.3-3.7-2.4-5.9c0-0.9-0.1-2-0.8-2.2c-0.7-0.2-1,1.1-1.3,1.8
			c-0.3,0.9-0.6,1.9-0.8,2.8c-0.5-0.7-0.6-0.7-0.4-1.6c0.5-2.7,1.6-5.1,2.2-7.8c0.6-2.8,0.7-5.7,0.2-8.5c-0.7-3.9-1.5-8-0.3-11.9
			c0.9-2.8,2.1-5.5,3.5-8.1c2.9-5.7,6.2-11.1,9.9-16.3c0.2-0.3,0.4-0.5,0.5-0.8c1.1-2.6,3.2-4.7,5.8-5.8c0.7-0.3,1.2-0.7,1.7-1.3
			C37,2.6,39,0.8,41.7,0.1h2.9c2.1,0.8,4,1.9,5.8,3.2c0.9,0.7,2.1,0.4,3.2,0.3c4-0.7,8,0.7,10.7,3.8c4.5,4.9,8.5,10.3,12,15.9
			c2,3.5,3.6,7.2,4.8,11c1.2,3.5,2.4,6.9,3.6,10.4c0.7,1.9,1.5,3.6,2.5,5.3c1.7,2.9,2.2,6.1,2.8,9.3c0.3,1.5,0.5,3.1,0.8,4.6
			c0.4,2,1.5,3.9,3.1,5.1c0.3,0.2,0.8,0.4,0.6,0.8c-0.2,0.4-0.7,0.1-1.1-0.1c-1.3-0.6-2.3-1.6-2.9-2.8c-0.7-1.4-1.3-2.8-1.8-4.4
			c-1-3.2-2.6-6.3-4.7-8.9c-1.3-1.5-2.3-3.2-3.1-5c-0.2,0.9,0,1.9,0.4,2.7c1.2,2.5,1.4,5.3,0.6,8c-0.4,1.3,0,2.3,1.2,2.8
			c4.1,1.5,5.4,4.6,5.1,8.7c0,0.8,0.2,1.5,0.5,2.2c0.1,0.2,0.3,0.5,0,0.6c-0.3,0.2-0.4-0.1-0.6-0.3c-0.5-0.7-0.7-1.4-0.8-2.2
			c-0.1-0.5-0.2-1.1-0.4-1.6c-0.8,2-2.5,3.7-2.6,6.1c-0.1,0.5,0,1,0.2,1.4c0.4,1,1.1,2,1.9,2.7c1.4,1.1,2.2,2.9,2.1,4.7
			c0,0.4,0.1,1-0.5,1.1s-0.7-0.4-0.9-0.8c-0.8-1.6-2.1-2.8-3.7-3.4c-1.1-0.4-2.1-0.9-3-1.7c0.4,1.3,0.9,2.2,1.3,3.2
			c1,2.5,0.6,5.4-1,7.6c-1.5,2.3-3.9,2.9-6.4,2.7c-2.5-0.2-3.9-1.8-4.8-4c-0.1-0.2-0.1-0.5-0.2-0.7c-0.1-0.4,0.1-0.8,0.4-0.9
			c0.5-0.2,0.7,0.2,0.8,0.5c0.3,0.8,0.8,1.5,1.3,2.1c1.6,1.6,4.1,1.6,5.7,0c0.2-0.2,0.3-0.4,0.5-0.6c1.4-1.9,1.1-4.7-0.7-6.2
			C76.8,83,76,82.4,75.2,82c-1.5-0.7-2.9-1.7-4-3c-0.5-0.6-0.9-0.7-1.5-0.1c-0.4,0.5-0.9,0.9-1.4,1.1l-0.7,0.2c-3.6,1-6-0.5-6.2-4.3
			c-0.1-2.5,0.4-5.1,1.5-7.4c0.7,0.1,0.5,0.7,0.6,1c0.5,2.1,0.9,4.3,1.6,6.7c0.4-1,0.6-1.8,1-2.6c0.9-1.9,2-3.6,3.3-5.1
			c0.4-0.4,0.7-0.9,1-1.3c1-1,1.2-2.5,0.6-3.8c-0.5-1.3-0.9-2.7-1.1-4c-0.3-1.5,0-2.1,1.4-2.8c2.2-1.1,4.2-2.6,5.8-4.4
			c1.1-1.2,1-1.3,0-2.5c-1.7-2.2-3.1-4.5-4.4-6.9c-0.2-0.5-0.7-1-1.2-1.3c-0.6-1.6-1-3.3-1.3-5c-0.1-0.7-0.5-1.3-1.1-1.6
			c-1.9-1.2-3.5-2.8-4.6-4.8c-1-1.6-2.1-3.2-3.4-4.7c-2.4-3.1-4.8-6.3-5.1-10.5c-0.1-1.3-1-2.3-2.2-2.6c-1.4-0.4-2.8-1-4-1.8
			c-0.6-0.4-1.3-0.5-2-0.2c-1.4,0.4-2.8,0.4-4.2,0.2l-1.4-0.2c-2.2-0.4-4.5,0.1-6.2,1.4c-2.1,1.4-3.8,3.4-5,5.6
			c-0.9,1.5-1.8,3-2.9,4.4c-2.1,3-3.8,6.1-4.1,9.9c-0.2,3-1.4,5.9-0.9,9c0.4,3.4,0.5,6.8,0.5,10.3c0.1,2.6,0.4,5.2,0.9,7.8
			c0.5,1.8,1.3,3.5,2.4,5c2.3,3.7,5.1,7.1,8.2,10.2c0.6,0.6,1.3,1.2,0.9,2.2c-1,1-1.5,1-2.6,0.3c-0.5-0.3-0.8-0.8-1.4-1.3
			c0.1,0.4,0.1,0.8,0.2,1.3c0.2,1.7-0.7,3.3-2.2,4.1c-1,0.7-2.2,1.2-3.2,1.9c-0.4,0.3-0.8,0.6-1.2,1c-0.5,0.6-0.7,1.1,0.2,1.6
			c0.6,0.1,0.9,0.7,0.8,1.3C26.7,86.4,26.6,86.5,26.3,86.4z"/>
		<path class="st2" d="M0,146v-0.3c0.6-0.4,1.4-0.5,2.1-0.4h91.2c0.8-0.1,1.5,0,2.2,0.2c0.1,0.1,0.2,0.3,0.1,0.4L0,146z"/>
		<path class="st3" d="M95.7,146v-0.3c0.1-0.1,0.3-0.2,0.4-0.3c2.1-0.2,4.1-0.1,6.2-0.1h12.9c0.6-0.1,1.3,0,1.8,0.4
			c0,0.1,0,0.2,0,0.2H95.7z"/>
		<path class="st4" d="M95.9,145.7L95.9,145.7h-0.2H0c0.4-3.7,0.9-7.4,1.3-11c0.6-5.7,1.1-11.5,1.3-17.2c0-1.1,0.2-2.1,0.7-3
			c2-3.2,2.9-6.7,3.8-10.2c0.7-2.8,2-5.4,3.7-7.8c1.6-2.3,3.2-4.5,4.8-6.7c1.3-1.8,2.3-1.9,4.3-0.9c0.3,0.6-0.2,0.8-0.5,1
			c-0.3,0.2-0.7,0.4-1.1,0.6c-0.7,0.2-1.1,0.9-0.9,1.6c0,0.1,0.1,0.2,0.2,0.4c0.9,2.4,2.1,4.8,3.5,7c0.3,0.5,0.6,0.9,1.1,1.2
			c0.7-1.6,1.4-3.2,1.8-4.8c1-3.5,2.7-6.7,5-9.5c0.6-0.6,1.1-1.3,1.4-2.1c1.1-1.6,2.4-2.9,4.5-2.9c0.3,0.5,0,0.8-0.3,1.2
			c-1.4,1.6-2.5,3.3-3.4,5.2c-0.7,1.6-1.7,3-3.1,4.1c-0.6,0.4-0.9,1.1-0.9,1.8c-0.4,2.9-1.2,5.8-2.6,8.4c-0.5,0.8-0.3,1.9,0.4,2.5
			c2.8,2.9,5.9,5.4,9.2,7.5c0.8,0.6,1.9,0.6,2.8,0c2.7-1.9,5.3-3.9,7.6-6.2c2.1-2,4.3-3.7,6.4-5.6c3.5-3.2,6.7-6.7,9.6-10.4
			c2.5-3.2,5-6.3,7.4-9.5c0.1-0.1,0.2-0.2,0.3-0.2c0.7-0.6,1.3-1.7,2-1.8s1.2,1.2,1.9,1.8c1.5,1.4,3.5,2,5,3.3
			c2.2,1.6,2.7,4.6,1.1,6.8c-0.2,0.3-0.4,0.5-0.6,0.7c-1.6,1.7-4.2,1.9-5.9,0.3c-0.3-0.3-0.6-0.7-0.8-1.1c-0.4-0.6-0.7-1.3-1-2
			c-0.8,0.4-0.5,0.9-0.3,1.3c0.8,2.1,2.1,3.8,4.5,3.9s4.8-0.4,6.3-2.7c1.6-2.4,1.8-5.5,0.6-8.1c-0.6-1-1-2-1.2-3.2
			c1.2,1.3,2.9,1.7,4.5,2.5c1.8,0.8,3,2.4,3.4,4.3c0.4-0.9,0.5-1.9,0.2-2.8c-0.4-1.4-1.3-2.7-2.5-3.6c-0.8-0.5-1.3-1.4-1.2-2.4
			c5.1,0.6,10.1,2.1,14.7,4.4c1.5,0.6,2.9,1.2,4.5,1.7c1.6,0.5,2.4,2,3.2,3.4c6.4,11.6,10.5,24.1,14.3,36.7c1.2,4,2.5,8,3.8,11.9
			c0.6,1.9,0.5,2-1.3,2.7c-0.8,0.3-1.7,0.7-2.5,1c-0.6,0.3-0.9,0.5-0.5,1.3c0.4,0.7,0,1.5-0.7,2c-0.8,0.6-1.7,1.1-2.6,1.4
			c-0.7,0-0.7-0.6-0.8-1c-0.1-0.8-0.2-1.6-0.4-2.4c-0.2-0.9-0.7-1.2-1.6-0.8c-1.6,0.6-3.2,1.2-4.8,1.9c-2.9,1.2-5.9,2.1-8.9,2.8
			C99.1,145,97.5,145.4,95.9,145.7z"/>
		<path class="st5" d="M95.9,145.7c1.9-0.8,3.9-1.5,5.9-1.9c4.1-1.1,8.1-2.5,11.9-4.2c2.6-1,2.2-1.4,2.9,1.7
			c0.2,0.9-0.2,1.9,0.7,2.6c-0.4,0.6-0.2,1.3-0.2,1.9L95.9,145.7z"/>
		<path class="st5" d="M30.8,84.2c-0.3,0.8-0.8,1.6-1.5,2.2c-2.4,2.8-4.1,6.1-5.1,9.7c-0.6,1.8-1.2,3.5-2,5.2
			c-2.2-2.9-4-6.2-5.2-9.7c-0.2-0.4,0-0.8,0.3-1c0,0,0,0,0.1,0l1.9-1.1c0.3-0.2,0.7-0.2,0.6-0.7c0.3,0.2,0.6,0.2,0.9,0.2
			c2-0.5,3.8-1.4,5.5-2.5l0.3-0.3c1-0.7,2-1.3,3.1-1.9C30.1,84,30.4,83.9,30.8,84.2z"/>
		<path class="st5" d="M68.4,79.9c-0.1,0.4-0.3,0.7-0.5,1c-4.2,5.2-8.1,10.7-12.8,15.6c-3.1,3.2-6.7,5.9-9.9,8.9
			c-2.7,2.6-5.6,4.9-8.7,7c-0.4,0.4-1.1,0.4-1.5,0.1c-4-2.2-7.5-5-10.6-8.4c-0.5-0.5-0.6-1.4-0.2-2c1.1-2.1,1.9-4.3,2.4-6.7
			c0.3-2.1,0.9-4,2.7-5.3c0.7-0.7,1.3-1.6,1.6-2.5c0.9-2.1,2.2-3.9,3.7-5.6c0.2-0.2,0.4-0.4,0.3-0.7c1.8-1.4,1.2-3.2,0.8-5
			c0-0.1,0-0.2-0.1-0.4c0.4-0.8-0.2-1.3-0.7-1.7c-3.6-3.5-6.7-7.5-9.3-11.8c-1.5-2.5-1.9-5.3-2.2-8.1c-0.3-2.8-0.4-5.6-0.2-8.3
			c0-1.6-0.1-3.1-0.4-4.7c-0.5-2.5,0.1-5,0.5-7.4c0.2-1.5,0.5-3,0.7-4.5c0.3-2,1.1-4,2.3-5.6c1.8-2.8,3.6-5.5,5.4-8.3
			c1.6-2.7,4.1-4.7,7.1-5.6c1.6-0.3,3.3-0.3,4.9,0.2c1.4,0.3,2.9,0.3,4.2-0.2c0.8-0.3,1.6-0.2,2.3,0.3c0.9,0.7,2,1.2,3.1,1.5
			c1.7,0.2,3.1,1.7,3.1,3.4c0.3,4,2.7,7,5,10c1.2,1.5,2.4,3,3.3,4.7c1.1,2.1,2.7,3.8,4.8,4.9c0.6,0.2,1,0.8,1,1.4
			c0.1,1.9,1.1,3.5,1.2,5.4c0.1,0.1,0.1,0.2,0.1,0.4c0.1,2.3-0.7,4.4-1.2,6.6c-0.2,0.7-0.3,1.5-0.4,2.2c-1.3,3.5-1.5,7.2-2.8,10.7
			c-1,2.7-2.5,5.1-4.3,7.2c-0.6,2.1-1.1,4.2-1.3,6.3c-0.2,1.4,0.2,2.9,1,4.1c1,1.3,2.7,1.7,4.2,1.1C67.4,79.9,67.9,79.8,68.4,79.9z"
			/>
		<path class="st6" d="M63,68.7c0.2-0.6,0.5-1.2,0.9-1.7c2.7-3.7,4.4-8.1,4.8-12.7c0.3-1.2,0.7-2.4,1.2-3.5c1.5-2.8,1.5-5.9,1.7-9
			c0-0.1,0.1-0.2,0.1-0.3c0.6-0.4,0.8,0,1,0.4c1.3,3,3.1,5.7,5.2,8.2c0.4,0.4,0.4,1,0,1.4c0,0,0,0,0,0c-1.8,2.2-4,4-6.6,5.2
			c-1.3,0.7-1.6,1.1-1.2,2.6c0.3,1.5,0.7,3.1,1.3,4.5c0.4,1,0.3,2.1-0.4,2.9c-0.9,1.2-1.8,2.4-2.7,3.5c-1.3,1.7-2.3,3.7-2.8,5.8
			c-0.1,0.3-0.1,0.6-0.4,0.6s-0.4-0.3-0.4-0.5C64.2,73.7,63.2,71.3,63,68.7z"/>
		<path class="st7" d="M18.4,32.4c0-2.8,1.3-5.4,3.5-7.1c0.5-0.4,1-0.9,1.5-1.4c0.2-0.2,0.3-0.4,0.6-0.3c0.2,0.1,0.3,0.4,0.2,0.7
			c-0.1,0.5-0.3,1.1-0.6,1.6c-1.9,3.5-2.7,7.3-3.2,11.1c-0.1,0.5,0,1.2-0.6,1.3s-0.6-0.7-0.7-1.1C18.7,35.6,18.5,34,18.4,32.4z"/>
		<path class="st8" d="M18.2,65.6c-0.4-1.6-1.3-3-1.7-4.6c-0.5-1.9,0.2-3.6,0.5-5.3c0.3-1.4,0.5-2.8,0.5-4.2c0-0.3-0.2-0.8,0.3-0.8
			c0.4,0,0.4,0.5,0.4,0.8c0,1.5-0.1,3.1-0.3,4.6c-0.3,1.9-0.2,3.9,0.2,5.7C18.5,63,18.6,64.4,18.2,65.6z"/>
		<path class="st8" d="M81.7,75.1c0.1-3.6,1.1-7.3-1.5-10.5c1.8,1.2,3.1,2.5,3.3,4.8S82.6,73.2,81.7,75.1z"/>
		<path class="st8" d="M69.9,24.8c4.6,2.6,5.7,4.2,7.2,10c-0.5-0.1-0.9-0.4-1.1-0.8c-0.5-0.7-0.9-1.5-1.2-2.2
			c-0.9-2.4-2.4-4.6-4.4-6.2c-0.2-0.1-0.3-0.3-0.4-0.4C70,25.1,69.9,25,69.9,24.8z"/>
		<path class="st9" d="M70.2,34.1c-1.9-1.1-3.4-2.8-4.1-4.9c-0.2-0.7,0-0.9,0.6-0.6c1.1,0.5,2.1,1,3,1.7c0.4,0.3,0.6,0.8,0.5,1.3
			C70.2,32.3,70.2,33.1,70.2,34.1z"/>
		<path class="st8" d="M33.5,8.4c1-1.5,2.3-2.8,3.8-3.8c0.4-0.3,0.6,0.1,0.8,0.4c0.4,0.6,0.8,1.3,1.2,1.9c0.2,0.4,0.2,0.8-0.3,0.7
			C37.2,7.1,35.5,7.8,33.5,8.4z"/>
		<path class="st8" d="M29.4,15.9c0.2-0.6,0.4-1.3,0.6-1.9c0.5-1.2,0.6-2.5,0.3-3.8c-0.1-0.2-0.1-0.5,0.1-0.7s0.4,0.1,0.6,0.2
			c2,1.2,2,1.2,0.7,3.1c-0.4,0.5-0.7,1.1-1,1.6l-1,1.6L29.4,15.9z"/>
		<path class="st8" d="M24.4,85.7c-1.4,0.1-2.7-0.4-3.8-1.2c-1.9-1.3-1.3-4,0.2-5.2c0.2-0.2,0.4-0.3,0.6-0.1
			c0.2,0.2-0.1,0.4-0.2,0.6c-1.2,1.6-1.1,2.5,0.2,3.9C22.3,84.5,23.3,85.1,24.4,85.7z"/>
		<path class="st8" d="M43.6,5.6c0,0.1-0.1,0.3-0.2,0.4c-0.1,0.1-0.3,0-0.4-0.1c-0.7-0.7-1.5-1.3-2.2-2c-0.4-0.4-0.4-0.8,0.2-0.9
			h0.1c1.8-0.7,2-0.6,2.2,1.3C43.4,4.7,43.4,5.2,43.6,5.6z"/>
		<path class="st8" d="M52,6.5C52.4,6.2,52.9,6,53.4,6c1,0,2-0.1,3.1-0.2c0.4-0.1,0.8,0.1,0.8,0.6s-0.4,0.6-0.8,0.6
			C55,7,53.5,6.8,52,6.5z"/>
		<path class="st10" d="M76.1,80.2c-1.5-0.4-2.8-1.5-3.4-2.9C73.7,78.3,74.9,79.3,76.1,80.2z"/>
		<path class="st11" d="M79.1,81.7L77.2,78c1.1,0.9,1.9,2.2,2.2,3.6L79.1,81.7z"/>
		<path class="st12" d="M43.6,79.3c-0.1-0.6,0.3-1.1,0.8-1.2c0,0,0.1,0,0.1,0c4.7-0.8,9.2-2.7,13.1-5.5c0.5-0.4,1.2-1.1,1.7-0.6
			c0.5,0.4-0.3,1.1-0.6,1.6c-0.4,0.7-0.9,1.3-1.5,1.9c-3.5,3.8-7.3,7.4-11.4,10.6c-0.8,0.6-1,0.6-1.2-0.4
			C44.3,83.5,43.9,81.4,43.6,79.3z"/>
		<path class="st13" d="M34.8,96.2C33,95.9,32,94.8,30.9,94c-0.2-0.1-0.3-0.3-0.4-0.4c-2-2-2-2,0.3-3.5c0.3-0.2,0.5-0.3,0.7,0.1
			C32.4,92.3,33.5,94.3,34.8,96.2z"/>
		<path class="st12" d="M71.7,41.8c-0.1,2.3,0.5,4.6-0.4,6.8c-0.2,0.8-0.6,1.6-1.2,2.2c-0.1-1.4,0.2-2.7,0.7-4
			C71.2,45.2,71.5,43.5,71.7,41.8z"/>
	</g>
</g>
</svg>
