<svg id="Camada_3" data-name="Camada 3" xmlns="http://www.w3.org/2000/svg" xmlns:xlink="http://www.w3.org/1999/xlink" viewBox="0 0 158.47 158.47"><defs><style>.cls-1{fill:none;stroke:#faca00;stroke-miterlimit:10;stroke-width:2.26px;}.cls-2{clip-path:url(#clip-path);}.cls-3{fill:#c4a149;}.cls-4{fill:#414041;}.cls-5{fill:#f7d9cd;}.cls-6{fill:#010001;}.cls-7{fill:#f4ccbd;}.cls-8{fill:#9f843e;}.cls-9{fill:#fefefe;}.cls-10{fill:#9f853e;}.cls-11{fill:#a0853e;}.cls-12{fill:#f4ccbc;}.cls-13{fill:#a2873f;}.cls-14{fill:#a3883f;}.cls-15{fill:#c8a496;}.cls-16{fill:#c8a597;}</style><clipPath id="clip-path" transform="translate(-784.96 -454.22)"><circle class="cls-1" cx="864.19" cy="533.46" r="78.11"/></clipPath></defs><title>fernanda-round-2</title><g class="cls-2"><path class="cls-3" d="M827.61,553.46a1.41,1.41,0,0,0-1.25-.1,8.71,8.71,0,0,1-4.82-.32c-2.7-.86-3.51-5-1.31-6.53.81-.58,1.5-1.33,2.3-1.91.57-.42.67-.7.08-1.16s-1.25-.78-1-1.49,1.18-.69,1.88-.72c.87,0,1.75,0,2.67,0-.1-.84-.69-.76-1.17-.82a9.47,9.47,0,0,1-6.48-3.18,8.62,8.62,0,0,1-2.37-5.85c0-.86-.08-2-.78-2.19s-1,1.06-1.29,1.77a27.22,27.22,0,0,0-.8,2.77c-.55-.65-.57-.66-.4-1.61.47-2.64,1.61-5.09,2.24-7.68a20.09,20.09,0,0,0,.17-8.39c-.69-3.91-1.45-7.9-.31-11.83a52.49,52.49,0,0,1,3.53-8c2.76-5.69,6.35-10.88,9.87-16.11a5.23,5.23,0,0,0,.49-.82,10.27,10.27,0,0,1,5.81-5.7,5.3,5.3,0,0,0,1.73-1.27c1.9-1.88,3.89-3.63,6.58-4.31h2.88a23.67,23.67,0,0,1,5.81,3.19c.89.72,2.1.43,3.15.28a11.45,11.45,0,0,1,10.69,3.75,107.9,107.9,0,0,1,12,15.78A51.47,51.47,0,0,1,882.3,502q1.77,5.15,3.59,10.28a28.44,28.44,0,0,0,2.53,5.28c1.72,2.83,2.21,6,2.75,9.22.26,1.54.54,3.07.8,4.6a8.19,8.19,0,0,0,3.11,5.09c.25.21.81.38.57.77s-.72.08-1.07-.07a5.86,5.86,0,0,1-2.88-2.76,23.81,23.81,0,0,1-1.77-4.31,26.2,26.2,0,0,0-4.73-8.81,20.76,20.76,0,0,1-3.13-5,3.56,3.56,0,0,0,.44,2.67,11,11,0,0,1,.63,7.93c-.37,1.32,0,2.28,1.24,2.75,4.07,1.51,5.38,4.56,5.13,8.6a6.1,6.1,0,0,0,.48,2.21c.07.21.27.46,0,.62s-.43-.13-.58-.3a4.3,4.3,0,0,1-.8-2.22,9.84,9.84,0,0,0-.4-1.55c-.81,2-2.49,3.66-2.63,6a2.78,2.78,0,0,0,.16,1.4,6.55,6.55,0,0,0,2,2.65,5.81,5.81,0,0,1,2.14,4.63c0,.42.07,1-.47,1.11s-.68-.4-.88-.79a6.66,6.66,0,0,0-3.73-3.36,8.36,8.36,0,0,1-3-1.67c.37,1.25.93,2.19,1.31,3.21a8,8,0,0,1-1,7.54c-1.49,2.26-3.89,2.86-6.42,2.7s-3.94-1.74-4.78-4a2.72,2.72,0,0,1-.19-.69.77.77,0,0,1,.44-.89c.47-.19.65.18.8.5a7.44,7.44,0,0,0,1.35,2.11,4,4,0,0,0,6.16-.55,4.58,4.58,0,0,0-.68-6.18,10.13,10.13,0,0,0-2.27-1.55,11.55,11.55,0,0,1-4-3c-.5-.58-.94-.64-1.47,0a3.31,3.31,0,0,1-1.42,1.08l-.68.21c-3.58,1-6-.51-6.19-4.26a16.8,16.8,0,0,1,1.48-7.29c.64.08.45.64.55,1,.53,2.11.93,4.26,1.61,6.64.39-1,.61-1.83.94-2.59a22.62,22.62,0,0,1,3.33-5.1c.35-.44.67-.9,1-1.33a3.32,3.32,0,0,0,.61-3.76,18.43,18.43,0,0,1-1.11-4c-.26-1.52,0-2.08,1.39-2.79a19.86,19.86,0,0,0,5.86-4.3c1-1.17,1-1.29,0-2.5a42.82,42.82,0,0,1-4.37-6.86,2.83,2.83,0,0,0-1.17-1.29,38.59,38.59,0,0,1-1.33-5,2,2,0,0,0-1.11-1.6,12.2,12.2,0,0,1-4.58-4.79,42.44,42.44,0,0,0-3.36-4.64c-2.37-3.09-4.78-6.23-5.14-10.35a2.88,2.88,0,0,0-2.2-2.57,13.5,13.5,0,0,1-4-1.81,2.12,2.12,0,0,0-2-.15,9.14,9.14,0,0,1-4.16.15l-1.42-.23a7.79,7.79,0,0,0-6.23,1.4,16,16,0,0,0-5,5.53,33.5,33.5,0,0,1-2.94,4.38c-2.08,3-3.78,6-4.06,9.82-.21,3-1.38,5.88-.92,8.89a78.6,78.6,0,0,1,.46,10.17,45.63,45.63,0,0,0,.87,7.72,14.92,14.92,0,0,0,2.4,4.94A56.23,56.23,0,0,0,836.37,541c.58.56,1.31,1.14.89,2.15-1,1-1.55,1-2.59.27-.46-.33-.81-.77-1.38-1.25a9.94,9.94,0,0,1,.16,1.25,4.08,4.08,0,0,1-2.17,4.08c-1,.65-2.16,1.18-3.17,1.9a7.08,7.08,0,0,0-1.17,1c-.53.61-.74,1.13.22,1.55.52.23,1,.59.86,1.28C827.94,553.4,827.82,553.52,827.61,553.46Z" transform="translate(-784.96 -454.22)"/><path class="cls-4" d="M801.26,612.44l0-.26a2.89,2.89,0,0,1,2.07-.37h91.18a5.16,5.16,0,0,1,2.24.22.32.32,0,0,1,.15.41Z" transform="translate(-784.96 -454.22)"/><path class="cls-5" d="M896.94,612.44l0-.25a.94.94,0,0,1,.4-.25c2.07-.21,4.14-.12,6.21-.13h12.92a2.58,2.58,0,0,1,1.83.39v.24Z" transform="translate(-784.96 -454.22)"/><path class="cls-6" d="M897.12,612.17H897l-.1,0H801.3c.42-3.64.87-7.27,1.25-10.92.6-5.66,1.08-11.34,1.35-17a6,6,0,0,1,.68-3c2-3.11,2.88-6.62,3.83-10.12a24.24,24.24,0,0,1,3.65-7.72c1.6-2.24,3.19-4.49,4.84-6.68,1.32-1.77,2.27-1.92,4.3-.88.25.57-.18.79-.54,1a8.12,8.12,0,0,1-1,.56,1.28,1.28,0,0,0-.71,1.93,38.08,38.08,0,0,0,3.52,6.91,3.46,3.46,0,0,0,1.06,1.17,31.74,31.74,0,0,0,1.83-4.76,24.55,24.55,0,0,1,5-9.41,9,9,0,0,0,1.42-2.07c1.07-1.62,2.4-2.85,4.51-2.85.32.51-.06.83-.35,1.14a21.83,21.83,0,0,0-3.43,5.17,10.52,10.52,0,0,1-3.07,4.07,2.31,2.31,0,0,0-.93,1.75,24.64,24.64,0,0,1-2.59,8.3,2,2,0,0,0,.38,2.48,47.26,47.26,0,0,0,9.24,7.38,2.24,2.24,0,0,0,2.75,0,60.38,60.38,0,0,0,7.63-6.15c2.07-2,4.29-3.71,6.42-5.58a80.91,80.91,0,0,0,9.63-10.3c2.5-3.11,5-6.23,7.43-9.38a.66.66,0,0,1,.29-.21c.66-.63,1.29-1.7,2-1.77s1.26,1.17,1.91,1.79c1.47,1.41,3.47,2,5,3.23a4.81,4.81,0,0,1,.47,7.43,4.19,4.19,0,0,1-6.76-.75,10.57,10.57,0,0,1-1-2c-.78.35-.52.87-.34,1.32.81,2.11,2.1,3.74,4.54,3.87s4.81-.39,6.29-2.68a8.09,8.09,0,0,0,.57-8,9.84,9.84,0,0,1-1.16-3.14c1.24,1.33,2.93,1.73,4.45,2.48a6,6,0,0,1,3.41,4.3,3.65,3.65,0,0,0,.23-2.76,7,7,0,0,0-2.5-3.56,2.4,2.4,0,0,1-1.16-2.34,46.32,46.32,0,0,1,14.69,4.37,39.07,39.07,0,0,0,4.46,1.65c1.59.53,2.41,2,3.21,3.39,6.41,11.47,10.52,23.84,14.28,36.35,1.19,4,2.52,7.88,3.79,11.82.6,1.84.53,2-1.31,2.72-.85.33-1.7.66-2.54,1-.56.24-.88.53-.49,1.27s0,1.47-.67,2a7.9,7.9,0,0,1-2.62,1.4c-.67,0-.71-.56-.76-1a18.78,18.78,0,0,0-.41-2.36c-.2-.93-.7-1.14-1.57-.81-1.61.61-3.21,1.23-4.77,1.94a57.88,57.88,0,0,1-8.92,2.76A31.48,31.48,0,0,1,897.12,612.17Z" transform="translate(-784.96 -454.22)"/><path class="cls-7" d="M897.12,612.17a29.58,29.58,0,0,1,5.87-1.9c4.15-.9,8-2.61,11.94-4.14,2.58-1,2.15-1.39,2.92,1.64.21.85-.18,1.87.65,2.56-.39.58-.16,1.24-.22,1.87Z" transform="translate(-784.96 -454.22)"/><path class="cls-7" d="M832,551.29a6.76,6.76,0,0,1-1.46,2.16,24.79,24.79,0,0,0-5.09,9.63,52.31,52.31,0,0,1-2,5.12,34.61,34.61,0,0,1-5.21-9.59.76.76,0,0,1,.42-1l1.86-1.06c.29-.16.73-.21.61-.72a1.08,1.08,0,0,0,.9.14,18.7,18.7,0,0,0,5.51-2.51l.3-.29a21.11,21.11,0,0,1,3.13-1.88C831.34,551.12,831.69,551,832,551.29Z" transform="translate(-784.96 -454.22)"/><path class="cls-7" d="M869.68,547a2.28,2.28,0,0,1-.54,1.06c-4.22,5.15-8.13,10.56-12.76,15.39-3.07,3.22-6.64,5.86-9.9,8.87a61.65,61.65,0,0,1-8.68,6.93,1.33,1.33,0,0,1-1.53.09A41.84,41.84,0,0,1,825.65,571a1.57,1.57,0,0,1-.18-2,25.21,25.21,0,0,0,2.4-6.61c.33-2.11.87-4,2.71-5.29a6.72,6.72,0,0,0,1.6-2.5,20.7,20.7,0,0,1,3.73-5.53c.2-.19.41-.38.33-.71,1.8-1.39,1.22-3.19.86-4.95,0-.11,0-.23-.08-.34.43-.84-.24-1.26-.7-1.71A63.92,63.92,0,0,1,827,529.76c-1.54-2.48-1.88-5.21-2.23-8a52.89,52.89,0,0,1-.21-8.25,21.22,21.22,0,0,0-.44-4.64c-.48-2.49.11-4.9.46-7.33.22-1.5.55-3,.7-4.48a12.93,12.93,0,0,1,2.3-5.6c1.74-2.76,3.63-5.43,5.38-8.19a12.44,12.44,0,0,1,7.13-5.53,10.8,10.8,0,0,1,4.86.17,7.74,7.74,0,0,0,4.24-.19,2.13,2.13,0,0,1,2.25.34,7.37,7.37,0,0,0,3.11,1.46,3.55,3.55,0,0,1,3.13,3.38c.35,3.93,2.73,6.92,5,9.86a35.24,35.24,0,0,1,3.35,4.64,11.64,11.64,0,0,0,4.79,4.89,1.55,1.55,0,0,1,.94,1.39c.12,1.85,1.14,3.48,1.25,5.33a.67.67,0,0,1,.08.37c.14,2.27-.72,4.36-1.23,6.51a12.11,12.11,0,0,0-.39,2.23c-1.29,3.42-1.46,7.14-2.84,10.55a23.44,23.44,0,0,1-4.35,7.18,42.81,42.81,0,0,0-1.35,6.24,5.91,5.91,0,0,0,1,4.06,3.72,3.72,0,0,0,4.2,1.12A3.72,3.72,0,0,1,869.68,547Z" transform="translate(-784.96 -454.22)"/><path class="cls-8" d="M864.29,535.88a4.2,4.2,0,0,1,.93-1.66,25.76,25.76,0,0,0,4.85-12.57,15.3,15.3,0,0,1,1.22-3.48c1.48-2.79,1.52-5.85,1.64-8.89L873,509c.55-.38.77,0,1,.42a34.1,34.1,0,0,0,5.18,8.11,1,1,0,0,1,.05,1.44,18.78,18.78,0,0,1-6.61,5.19c-1.34.69-1.54,1.1-1.24,2.55a25.29,25.29,0,0,0,1.28,4.46,2.71,2.71,0,0,1-.42,2.9c-.89,1.17-1.76,2.36-2.66,3.51a15.21,15.21,0,0,0-2.85,5.73c-.07.28-.1.59-.46.6s-.39-.29-.42-.5C865.42,540.9,864.49,538.46,864.29,535.88Z" transform="translate(-784.96 -454.22)"/><path class="cls-9" d="M837,543.13a3.64,3.64,0,0,1-.78,5.29,6.27,6.27,0,0,0-4.22,2.87c-1.21.18-2.06,1.09-3.14,1.56-.32.13-.58.39-1,.32a1.41,1.41,0,0,0-1.16-1.08c-1-.29-.86-.83-.37-1.48a9.62,9.62,0,0,1,3-2.44c.45-.27.92-.48,1.37-.74,2.14-1.21,2.72-2.5,2.24-5a1.4,1.4,0,0,1,0-1c.57.54,1.12,1.09,1.71,1.6A1.49,1.49,0,0,0,837,543.13Z" transform="translate(-784.96 -454.22)"/><path class="cls-10" d="M819.7,500a9,9,0,0,1,3.52-7.06,17.77,17.77,0,0,0,1.46-1.42c.15-.16.3-.43.58-.25a.54.54,0,0,1,.19.65,7.86,7.86,0,0,1-.59,1.55c-1.9,3.44-2.64,7.21-3.22,11-.07.49,0,1.22-.56,1.27s-.58-.68-.69-1.14A20.42,20.42,0,0,1,819.7,500Z" transform="translate(-784.96 -454.22)"/><path class="cls-11" d="M819.45,532.84c-.41-1.58-1.29-3-1.69-4.57-.46-1.87.17-3.55.55-5.28a16,16,0,0,0,.47-4.13c0-.28-.18-.77.26-.79s.41.48.44.82a22.13,22.13,0,0,1-.31,4.53,15,15,0,0,0,.25,5.67A6.31,6.31,0,0,1,819.45,532.84Z" transform="translate(-784.96 -454.22)"/><path class="cls-11" d="M883,542.21c.11-3.56,1.09-7.24-1.51-10.44,1.77,1.2,3.13,2.49,3.3,4.77S883.83,540.34,883,542.21Z" transform="translate(-784.96 -454.22)"/><path class="cls-11" d="M871.15,492.47c4.65,2.55,5.72,4.13,7.22,9.94a1.36,1.36,0,0,1-1.09-.8,14.68,14.68,0,0,1-1.2-2.2,14.87,14.87,0,0,0-4.38-6.14,4.17,4.17,0,0,1-.41-.43S871.24,492.7,871.15,492.47Z" transform="translate(-784.96 -454.22)"/><path class="cls-12" d="M871.52,501.64a8.94,8.94,0,0,1-4.13-4.86c-.24-.67,0-.85.61-.6a16.76,16.76,0,0,1,3,1.68,1.38,1.38,0,0,1,.52,1.27C871.5,499.88,871.52,500.63,871.52,501.64Z" transform="translate(-784.96 -454.22)"/><path class="cls-11" d="M834.74,476.23a13.93,13.93,0,0,1,3.81-3.78c.37-.27.64.06.85.39.4.64.85,1.25,1.25,1.88.23.37.23.82-.33.66C838.46,474.86,836.81,475.59,834.74,476.23Z" transform="translate(-784.96 -454.22)"/><path class="cls-11" d="M830.63,483.62c.21-.62.42-1.24.62-1.86a6.14,6.14,0,0,0,.31-3.74.56.56,0,0,1,.11-.66c.26-.2.43.07.62.18,2,1.14,2,1.21.69,3.09-.37.52-.71,1.06-1.05,1.6l-1,1.55Z" transform="translate(-784.96 -454.22)"/><path class="cls-11" d="M825.62,552.71a6,6,0,0,1-3.77-1.15c-1.93-1.33-1.33-4,.2-5.12.2-.15.44-.3.63-.08s-.06.41-.19.59c-1.19,1.54-1.11,2.47.22,3.85A14.76,14.76,0,0,0,825.62,552.71Z" transform="translate(-784.96 -454.22)"/><path class="cls-11" d="M844.86,473.43a1.17,1.17,0,0,1-.17.38c-.13.14-.29.05-.41-.06-.74-.65-1.49-1.29-2.2-2-.41-.39-.41-.77.24-.92l.11-.05c1.76-.7,2-.56,2.22,1.29A2.86,2.86,0,0,0,844.86,473.43Z" transform="translate(-784.96 -454.22)"/><path class="cls-11" d="M853.3,474.34a1.83,1.83,0,0,1,1.34-.55,17.45,17.45,0,0,0,3.06-.23.65.65,0,0,1,.84.61c0,.6-.41.56-.81.58A20.25,20.25,0,0,1,853.3,474.34Z" transform="translate(-784.96 -454.22)"/><path class="cls-13" d="M877.32,547.31a5.17,5.17,0,0,1-3.43-2.88A40.84,40.84,0,0,0,877.32,547.31Z" transform="translate(-784.96 -454.22)"/><path class="cls-14" d="M880.33,548.77l-1.82-3.7a6.39,6.39,0,0,1,2.16,3.56Z" transform="translate(-784.96 -454.22)"/><path class="cls-15" d="M844.84,546.39a1,1,0,0,1,.93-1.14,31.1,31.1,0,0,0,13.11-5.45c.49-.36,1.18-1,1.64-.61s-.28,1.09-.57,1.61a8.33,8.33,0,0,1-1.51,1.84A105.22,105.22,0,0,1,847,553.16c-.76.56-1,.61-1.18-.42C845.54,550.62,845.17,548.51,844.84,546.39Z" transform="translate(-784.96 -454.22)"/><path class="cls-16" d="M836.12,563.08c-1.83-.24-2.8-1.33-3.94-2.13a3.39,3.39,0,0,1-.44-.41c-2-1.95-2-2,.3-3.49.27-.18.52-.3.67.07A31.59,31.59,0,0,0,836.12,563.08Z" transform="translate(-784.96 -454.22)"/><path class="cls-15" d="M872.93,509.28c-.08,2.26.47,4.56-.43,6.77a4.75,4.75,0,0,1-1.21,2.12,7.92,7.92,0,0,1,.72-3.91A38.59,38.59,0,0,0,872.93,509.28Z" transform="translate(-784.96 -454.22)"/></g><circle class="cls-1" cx="79.23" cy="79.23" r="78.11"/></svg>