<?xml version="1.0" encoding="utf-8"?>
<!-- Generator: Adobe Illustrator 23.1.0, SVG Export Plug-In . SVG Version: 6.00 Build 0)  -->
<svg version="1.1" id="Camada_4" xmlns="http://www.w3.org/2000/svg" xmlns:xlink="http://www.w3.org/1999/xlink" x="0px" y="0px"
	 viewBox="0 0 146.4 140.9" style="enable-background:new 0 0 146.4 140.9;" xml:space="preserve">
<style type="text/css">
	.st0{clip-path:url(#SVGID_2_);}
	.st1{fill:#010001;}
	.st2{fill:#F4CCBD;}
	.st3{fill:#CAA498;}
	.st4{fill:#D6AFA2;}
	.st5{fill:#DEB2A3;}
	.st6{fill:#F3CBBC;}
	.st7{fill:#403B3A;}
	.st8{fill:#FDFDFD;}
	.st9{fill:#DDB2A3;}
	.st10{fill:#9591AC;}
	.st11{fill:#D3D3D3;}
	.st12{fill:#AAA6BE;}
</style>
<title>samuel-sq-4</title>
<g>
	<defs>
		<rect id="SVGID_1_" x="-3.8" y="-18.9" width="158.2" height="159.8"/>
	</defs>
	<clipPath id="SVGID_2_">
		<use xlink:href="#SVGID_1_"  style="overflow:visible;"/>
	</clipPath>
	<g class="st0">
		<path class="st1" d="M15.9,112.8c-0.2-1,0.1-2.1,0.8-2.9c3.2-4.1,4.8-8.8,5.7-13.9c1-5.6,4-10.3,7.1-15c2.1-3.5,4.9-6.5,8.1-9
			c0.1,0,0.1-0.1,0.2-0.2c1.8-2.9,4.8-3.3,7.7-3.8c2.6-0.4,5.1-1.1,7.4-2.2c0.6-0.3,1.3-0.5,2-0.7c3.1-0.5,6.1-1.5,9-2.8
			c0.8,0.2,0.8,0.9,0.7,1.5c-0.3,2.4-0.7,4.7-1.2,7.1c-0.5,1.8-0.5,3.7,0.2,5.4c0.2,0.8,0.6,1.5,0.8,2.3c0.8,3.9,3.2,6.6,6.6,8.4
			c0.8,0.5,1.7,0.8,2.7,1c1.3,0.3,2.6,0.2,3.8-0.3c0.4-0.2,0.9-0.3,1.4-0.4c0.2,0,0.5-0.1,0.7-0.2c3.2-1,6-2.8,8.2-5.3
			c1.7-1.9,3.1-4,4.3-6.3c1.7-3.3,1.5-6.7,0.6-10.1c-0.3-0.6-0.4-1.3-0.4-2c0-0.4,0-0.9,0.7-0.8c1.3,0.5,2.6,1,3.8,1.7
			c0,0,0.1,0,0.1,0c2.9-0.2,4.8,2.1,7.3,2.8c1.4,0.5,2.9,0.8,4.3,0.8c1.1,0,2.1,0.2,3.2,0.6c1.8,0.5,3.7,0.8,5.5,0.8
			c4.7,0.4,9,1.4,11.7,5.9c1.4,2.5,3.1,4.9,5,7.2c0.2,0.2,0.3,0.4,0.4,0.6c0.4,3,2.7,5.2,3.1,8.2c0.1,0.9,0.4,1.8,0.8,2.6
			c2,3.2,2.4,6.8,3.2,10.3c0.6,2.7,0.5,5.5,0.9,8.3c0.3,1.8,0.5,3.6,0.5,5.5c0,0.6,0.1,1.1,0.4,1.6c1.1,2.1,1.8,4.4,2.3,6.8
			c0.1,0.4,0.2,0.8,0,1.1c-1,0.7-2.2,1.1-3.4,1c-3.8,0.3-7.5,1.3-11.3,1.9c-3,0.5-6,1-9,1.8c-0.8,0.2-1.5,0.4-2.3,0.5
			c-0.7,0-1.2,0.5-1.2,1.2c0,0.1,0,0.2,0,0.2c0.1,1.8,0,3.6-0.3,5.3c-0.1,0.5-0.1,1.1-0.7,1.4H37c-0.5-0.1-1,0-1.4,0.1h-0.7
			c-0.1-0.1-0.2-0.2-0.2-0.4c-0.3-1.1,0.1-2.1,0.1-3.2c0-4.2,0-8.5,0-12.7c0-1-0.1-2-0.3-3c-0.2-0.8-0.8-0.7-1.4-0.6
			c-4.7,0.5-9.5-0.9-13.2-3.9C18.2,115.9,16.6,114.7,15.9,112.8z"/>
		<path class="st2" d="M15.9,112.8c3.3,4.2,7.4,7.1,12.8,7.8c1.6,0.2,3.2,0.2,4.8,0c0.6-0.1,0.9,0,1,0.6c0,0.4,0,0.9-0.2,1.3
			c-1.3,2.7-2.9,5.3-4.4,7.9c-0.2,0.4-0.5,0.8-1,1c-3.6,0-7.2-0.5-10.6-1.5c-1.5-0.5-3-1.1-4.4-1.8c-0.4-0.2-0.8-0.4-1.2-0.5
			c-0.1,0.4,0.2,0.5,0.4,0.6c2.2,1.5,4.3,3.1,6.2,4.8c1.5,1.3,2.8,2.7,3.9,4.4c0.3,0.4,0.7,0.8,1.1,1.1c0.2,0.7,0.1,1.4-0.3,1.9
			c-0.1,0.1-0.3,0.2-0.4,0.3H0c0.7-2.5,1.8-4.7,2.6-7.2c1.7-5.4,5.4-9.5,8.6-14c1.3-1.8,2.6-3.5,3.9-5.3
			C15.4,114,15.7,113.4,15.9,112.8z"/>
		<path class="st2" d="M121.8,131.8c4.2-1,8.4-1.6,12.7-2.5c3.7-0.8,7.4-1,11-1.9c0.6,2.6,0.9,5.2,0.9,7.8c0,1.9-0.2,3.8-0.4,5.7
			h-24.7c-0.1-0.1-0.1-0.3-0.1-0.4c0.5-2,0.6-4.2,0.3-6.3C121.3,133.4,121.4,132.6,121.8,131.8z"/>
		<path class="st3" d="M121.8,131.8c-0.1,2,0.4,3.9,0.2,5.8c-0.1,1,0.1,2.1-0.7,3c-1.2,0.3-2.4-0.1-3.6,0.2h-0.2
			c-0.1,0-0.1-0.1-0.1-0.2s0.1-0.1,0.1-0.1c0.5-2.3,0.7-4.7,0.5-7.1c0-0.7,0.1-1.1,0.9-1.2C119.9,132.2,120.9,132.1,121.8,131.8z"/>
		<path class="st1" d="M117.5,140.6v0.2h-82c0.4-0.4,1-0.2,1.5-0.2L117.5,140.6z"/>
		<path class="st4" d="M117.7,140.9c1.2-0.5,2.4-0.1,3.6-0.2c0,0.1,0,0.2,0,0.2H117.7z"/>
		<path class="st2" d="M93,62.6c-1.1,0.3-0.5,1.1-0.4,1.6c0.5,1.7,0.9,3.5,1,5.3c0.3,3.7-1.3,6.8-3.3,9.7c-2.1,3.3-5.1,6-8.7,7.6
			c-0.6,0.3-1.3,0.5-2,0.6c-0.5-0.4,0-0.5,0.2-0.7c0.8-0.3,1.6-0.8,2.3-1.3c-1.2-0.1-2.4-0.1-3.6-0.1c-1.3,0-2.7-0.2-3.9-0.7
			c-0.4-0.9,0.3-1.5,0.8-1.9c2.3-2.3,4.3-5,5.9-7.8c1.5-2.5,2.7-5.3,3.6-8.1c0.1-0.5,0.3-1,0.3-1.5c0.1-0.5,0.3-1.2-0.1-1.5
			s-0.9,0.3-1.3,0.5c-1.3,0.7-2.6,1.1-4.1,1.3c-2,0.4-4.1,0.5-6.2,0.4c-3.7-0.4-6.4-2.5-9-4.8c-2.2-2.2-4.1-4.7-5.5-7.5
			c-0.8-1.5-1.3-3.2-1.4-4.9c0-0.6-0.2-1.2-0.7-1.5c0.2-2.2-0.1-4.5-1-6.6c-1.2-3.1-0.9-6.3-0.7-9.4v-1c0-1.3,0.1-2.7,0.3-4
			c0.1-0.9,0.1-1.8,0.1-2.6c-0.3-5.2,1-10,4.7-13.8c1.2-1.3,2.5-2.5,3.8-3.6c1-0.8,2.4-1.1,3.7-0.8c2.7,0.7,5.4,0.9,8.2,0.5
			c1.8-0.3,3.5-0.8,5.1-1.5C82.4,3.9,84,4,85.2,4.8c3.5,2,6.4,5,8.3,8.5c0.8,1.6,1.3,3.3,1.3,5.1c0.2,4.4,0.7,8.7,1.4,13
			c0.1,0.7,0.2,1.4,0.3,2.1c0.6,2.2,0.4,4.5-0.5,6.5c-0.4,1.4-0.7,2.8-0.7,4.2c-0.4,0.3-0.3,0.8-0.2,1.2c0.5,3.5-0.5,7.1-2.7,9.8
			c-0.7,1-0.9,2.2-0.6,3.3C92.1,59.9,91.8,61.5,93,62.6z"/>
		<path class="st5" d="M64.5,61.2c1.1,0.5,2.1,1.2,3.1,2c2.6,2,5.8,2.9,9.1,2.4c1.3-0.2,2.6-0.2,3.9-0.5c1.5-0.3,2.8-0.8,4-1.7
			c0.2-0.2,0.4-0.5,0.8-0.3s0.3,0.5,0.3,0.9c-0.1,1.9-0.5,3.7-1.3,5.4c-1.9,5.1-4.9,9.7-8.7,13.6c-0.5,0.4-0.8,1-1,1.6
			c-0.5,0.5-1.1,0.2-1.6,0c-2.6-1-5.1-2.5-7.2-4.4c-0.5-0.4-1.1-0.8-1.5-1.3l-0.8-2.2c0-1.2,0.2-2.3,0.5-3.4
			c0.5-3.2,0.7-6.4,0.7-9.6c0-0.6-0.3-1.1-0.2-1.6L64.5,61.2z"/>
		<path class="st1" d="M95.9,31.2c-0.9-3.7-1.3-7.4-1.4-11.1c0.2-6.9-5-13-10.5-15.6c-0.8-0.4-1.7-0.3-2.4,0.1
			C77.1,6.8,72,7.2,67.2,5.7c-0.8-0.2-1.6-0.1-2.3,0.4c-2.9,2-5.4,4.6-7.2,7.6c-1.4,2.6-2.1,5.6-2,8.5c0,2.7-0.1,5.4-0.5,8.1
			c-0.1,0.2-0.2,0.3-0.4,0.2c-0.2-2.2-0.3-4.3-0.5-6.5c-0.6-6.2,1.8-11.3,6-15.7c1.8-1.8,3.7-3.5,5.7-5.1C70.4-0.2,76.4-1,81.5,1.2
			C87.8,3.7,93,8.5,96.1,14.5c0.6,1.1,1,2.3,1.1,3.5c0.1,1.6,0.4,3.2,0.8,4.7c0.6,2.5,0.3,5.1-0.7,7.5
			C97.1,30.9,96.8,31.5,95.9,31.2z"/>
		<path class="st3" d="M95.9,31.2c0.7,0,0.9-0.6,1.4-0.9c0.5-0.1,0.9-0.2,1.4-0.3c1.5-0.6,3.2,0.1,3.7,1.6c0.1,0.4,0.2,0.8,0.2,1.2
			c0.1,2.1-0.8,3.8-1.7,5.5c-0.8,1.6-1.5,3.2-2,4.9c-0.8,2.6-1.6,2.8-3.6,1c-0.5-1.4-0.4-3,0.3-4.3c1.2-2.6,0.7-5,0.3-7.6
			C96,31.9,96,31.5,95.9,31.2z"/>
		<path class="st3" d="M55.4,31.2c0.1,1.4,0,2.7-0.2,4c-0.2,1.3,0,2.6,0.5,3.8c0.8,2.2,1.3,4.5,1.6,6.8c0.1,0.5,0.4,1.2-0.4,1.5
			c-1,0-1.8-0.7-1.8-1.7c0-0.1,0-0.1,0-0.2c-0.2-1.4-0.6-2.7-1.3-4c-0.8-1.8-1-3.7-0.6-5.6c0.1-0.9,0.1-1.8,0.1-2.7
			c0-1.5,0.2-1.7,1.7-1.7C55.1,31.5,55.1,31.2,55.4,31.2z"/>
		<path class="st6" d="M64.5,62c0.8,1.2,0.6,2.6,0.5,3.9c0,3.4-0.4,6.9-1.3,10.2c-0.1,0.2-0.1,0.3-0.2,0.5c-1-1.8-0.8-3.7-0.4-5.6
			c0.5-2.3,1-4.6,1.2-6.9c0.1-0.6,0.3-1.3-0.4-1.7L64.5,62z"/>
		<path class="st7" d="M55.4,31.2c-0.2,0.1-0.2,0.4-0.4,0.3v-1l0.4-0.2L55.4,31.2z"/>
		<path class="st3" d="M64.3,78.8c1.3,0.2,1.9,1.4,2.8,2.1c1.8,1.4,3.8,2.5,5.8,3.3c0.5,0.2,1.1,0.4,1.6,0.3c2.5,0.5,5,0.6,7.4,0.5
			c0.3,0,0.7-0.2,0.8,0.3s-0.3,0.4-0.5,0.6c-0.7,0.5-1.4,0.9-2.2,1.1c-0.2,0.1-0.6,0-0.5,0.5c-0.1,0.1-0.3,0.2-0.5,0.2
			c-0.2-0.1-0.4-0.1-0.6,0c-1.6,0.7-3.2,0.9-4.9,0.8c-4.5-1.1-8-4.5-9.3-8.9C64.3,79.3,64.3,79,64.3,78.8z"/>
		<path class="st8" d="M68.8,118.1c-1.2,1.2-2.7,2.1-4.4,2.5c-1.8,0.6-3.8-0.1-4.8-1.7c-1.4-2-1.8-4.6-0.9-6.8
			c0.8-2.3,3.4-3.2,6.2-2.3c2.4,0.9,4.5,2.5,6,4.6c0.9,1.3,1.8,2.4,2.9,3.5c2.2,1.8,4.5,3.2,7.5,2.3c1.9-0.5,3.3-1.9,4-3.7
			c0.9-2,0-4.5-2-5.4c-0.9-0.4-2-0.5-3-0.2c-0.9,0.3-1.9,0.7-2.8,1.1c-0.3,0.1-0.3,0-0.3-0.3c1.3-1,2.9-1.6,4.6-1.7
			c2.6-0.2,4.8,1.8,4.9,4.4c0,0.7-0.1,1.4-0.3,2c-1.6,4.7-6.3,6.3-10.9,3.8c-1.7-1-3.2-2.4-4.3-4c-1.3-2-3-3.7-5.1-5
			c-2.2-1.2-4.4-1.3-5.8-0.1c-1.2,1-1.7,3.7-0.9,5.8c1,2.9,3.2,3.8,5.9,2.5c1.1-0.5,2.2-1.1,3.3-1.7
			C68.8,117.8,68.9,117.9,68.8,118.1z"/>
		<path class="st9" d="M73.6,88.3c1.9-0.1,3.6-0.7,5.5-0.7C77.3,88.2,75.6,88.8,73.6,88.3z"/>
		<path class="st10" d="M76.5,112.8c-0.3,0.4-0.7,0.6-1.2,0.7c0.1-0.6,0.5-0.7,0.9-0.9C76.5,112.5,76.5,112.5,76.5,112.8z"/>
		<path class="st11" d="M76.5,112.8l-0.2-0.2c0.3-0.3,0.6-0.6,1-0.7l0.3,0.3L76.5,112.8z"/>
		<path class="st12" d="M68.8,118.1l-0.3-0.3c0.2-0.3,0.6-0.5,1-0.4C69.4,117.7,69.1,118,68.8,118.1z"/>
		<path class="st3" d="M28.8,131.3c-0.2,0.7-0.6,1.4-1.1,1.9c-1.4,1.7-2.6,3.6-3.7,5.5c-0.5,0-0.9-0.3-1.1-0.7
			c-0.5-0.9-1.1-1.7-1.8-2.3c-2.5-2.7-5.3-5.1-8.4-7.2c-0.2-0.1-0.3-0.2-0.5-0.3c-0.3-0.2-0.7-0.5-0.4-0.9s0.6-0.2,0.9,0
			c1.2,0.6,2.4,1.2,3.7,1.6c3.4,1.3,7,2,10.7,2C27.7,131,28.3,131,28.8,131.3z"/>
	</g>
</g>
</svg>
