<svg id="Camada_2" data-name="Camada 2" xmlns="http://www.w3.org/2000/svg" xmlns:xlink="http://www.w3.org/1999/xlink" viewBox="0 0 159.43 158.47"><defs><style>.cls-1{fill:none;stroke:#faca00;stroke-miterlimit:10;stroke-width:2.26px;}.cls-2{clip-path:url(#clip-path);}.cls-3{fill:#010001;}.cls-4{fill:#f4ccbd;}.cls-5{fill:#caa498;}.cls-6{fill:#342927;}.cls-7{fill:#cfcbe4;}.cls-8{fill:#dfdced;}.cls-9{fill:#d6afa2;}.cls-10{fill:#deb2a3;}.cls-11{fill:#f3cbbc;}.cls-12{fill:#403b3a;}.cls-13{fill:#fefefe;}.cls-14{fill:#fdfdfd;}.cls-15{fill:#ddb2a3;}.cls-16{fill:#9591ac;}.cls-17{fill:#d3d3d3;}.cls-18{fill:#aaa6be;}</style><clipPath id="clip-path" transform="translate(-1013.95 -454.22)"><circle class="cls-1" cx="1093.18" cy="533.46" r="78.11"/></clipPath></defs><title>samuel-round-3</title><g class="cls-2"><path class="cls-3" d="M1042.8,584.34a3.19,3.19,0,0,1,.85-2.88,30.63,30.63,0,0,0,5.72-13.89c1-5.64,4-10.35,7.14-15,2.29-3.38,4.74-6.62,8.12-9a.46.46,0,0,0,.18-.16c1.77-2.91,4.83-3.26,7.73-3.83a27.55,27.55,0,0,0,7.43-2.16,6.38,6.38,0,0,1,2-.64,34.61,34.61,0,0,0,9-2.82c.83.24.79.92.71,1.55a65,65,0,0,1-1.24,7,8.37,8.37,0,0,0,.21,5.39c.26.77.62,1.49.81,2.28.76,3.93,3.19,6.56,6.59,8.4a7.41,7.41,0,0,0,2.67,1,5.6,5.6,0,0,0,3.8-.34,7.34,7.34,0,0,1,1.37-.38,2.62,2.62,0,0,0,.71-.17,17.17,17.17,0,0,0,8.18-5.33,29.31,29.31,0,0,0,4.28-6.3c1.7-3.28,1.52-6.69.56-10.13a5,5,0,0,1-.4-2c0-.41,0-.94.73-.77a23.64,23.64,0,0,1,3.8,1.72.34.34,0,0,0,.11.05c2.89-.2,4.8,2.1,7.32,2.85a13,13,0,0,0,4.33.74,8.75,8.75,0,0,1,3.16.57,23.31,23.31,0,0,0,5.53.82c4.64.4,9,1.42,11.73,5.9a44.25,44.25,0,0,0,5,7.16,1.28,1.28,0,0,1,.38.59c.41,3,2.69,5.22,3.09,8.19a6.76,6.76,0,0,0,.85,2.6c2,3.18,2.43,6.82,3.19,10.33.59,2.7.49,5.54.95,8.3a35.79,35.79,0,0,1,.51,5.48,3.42,3.42,0,0,0,.34,1.62,26.66,26.66,0,0,1,2.3,6.75c.09.41.24.76,0,1.12a5.2,5.2,0,0,1-3.37,1c-3.83.29-7.52,1.33-11.29,1.91-3,.46-6,1-9,1.79a18.47,18.47,0,0,1-2.32.51,1.21,1.21,0,0,0-1.22,1.41,25,25,0,0,1-.27,5.33c-.1.53-.1,1.13-.73,1.39h-80.42a2.83,2.83,0,0,0-1.41.12h-.72a3,3,0,0,1-.24-.38c-.28-1.09.13-2.14.12-3.22,0-4.23,0-8.46,0-12.7a17.29,17.29,0,0,0-.32-3c-.24-.79-.83-.68-1.45-.62a18,18,0,0,1-13.17-3.92C1045.14,587.45,1043.53,586.26,1042.8,584.34Z" transform="translate(-1013.95 -454.22)"/><path class="cls-4" d="M1042.8,584.34c3.32,4.16,7.38,7.11,12.81,7.84a15.51,15.51,0,0,0,4.76,0c.6-.11.93,0,1,.64a2.2,2.2,0,0,1-.24,1.26c-1.32,2.75-2.93,5.32-4.46,8-.23.4-.47.85-1,1a36.56,36.56,0,0,1-10.6-1.51,43.71,43.71,0,0,1-4.45-1.75,4.17,4.17,0,0,0-1.23-.49c-.09.4.22.5.42.63a59.62,59.62,0,0,1,6.22,4.85,21.42,21.42,0,0,1,3.86,4.37,7.54,7.54,0,0,0,1.06,1.12,2.05,2.05,0,0,1-.35,1.91,3.54,3.54,0,0,1-.44.32h-23.26c.65-2.47,1.83-4.75,2.6-7.16,1.72-5.36,5.36-9.51,8.56-13.95,1.27-1.78,2.58-3.53,3.87-5.29A5.2,5.2,0,0,0,1042.8,584.34Z" transform="translate(-1013.95 -454.22)"/><path class="cls-4" d="M1148.76,603.37c4.18-1,8.44-1.6,12.64-2.49,3.67-.79,7.43-1,11.06-1.9a36.4,36.4,0,0,1,.91,7.77,45.5,45.5,0,0,1-.41,5.69h-24.7a.59.59,0,0,1-.08-.41,17.06,17.06,0,0,0,.31-6.25A2.92,2.92,0,0,1,1148.76,603.37Z" transform="translate(-1013.95 -454.22)"/><path class="cls-5" d="M1148.76,603.37c-.1,2,.43,3.89.2,5.83-.12,1,.13,2.14-.69,3-1.18.33-2.42-.11-3.6.24h-.24c-.08-.05-.11-.11-.09-.16s.05-.09.07-.09a26.88,26.88,0,0,0,.52-7.1c0-.71.12-1.07.92-1.15A29.31,29.31,0,0,0,1148.76,603.37Z" transform="translate(-1013.95 -454.22)"/><path class="cls-6" d="M1144.41,612.19l0,.25h-82c.44-.44,1-.23,1.48-.23Q1104.16,612.18,1144.41,612.19Z" transform="translate(-1013.95 -454.22)"/><path class="cls-7" d="M1061.65,612.19l0,.25h-6.23a.28.28,0,0,1,.12-.39A13.06,13.06,0,0,1,1061.65,612.19Z" transform="translate(-1013.95 -454.22)"/><path class="cls-8" d="M1055.48,612.21a1.77,1.77,0,0,0,0,.23h-5.28l.24-.25A7.14,7.14,0,0,1,1055.48,612.21Z" transform="translate(-1013.95 -454.22)"/><path class="cls-9" d="M1144.67,612.44c1.17-.53,2.41-.11,3.6-.24,0,.08,0,.16,0,.24Z" transform="translate(-1013.95 -454.22)"/><path class="cls-4" d="M1120,534.19c-1.1.3-.53,1.11-.36,1.61a23.5,23.5,0,0,1,1,5.26c.34,3.73-1.35,6.77-3.28,9.65a19.92,19.92,0,0,1-8.69,7.63,6.16,6.16,0,0,1-2,.62c-.51-.43,0-.55.25-.67a8.41,8.41,0,0,0,2.26-1.32c-1.28-.19-2.46,0-3.62-.11a9.65,9.65,0,0,1-3.94-.69c-.39-.92.31-1.44.81-1.93a36.5,36.5,0,0,0,5.87-7.84,35.64,35.64,0,0,0,3.57-8.09c.14-.5.25-1,.34-1.52s.34-1.17-.06-1.49-.9.27-1.31.51a11.26,11.26,0,0,1-4.08,1.33,25.59,25.59,0,0,1-6.18.41c-3.68-.36-6.39-2.5-9-4.77a29.2,29.2,0,0,1-5.52-7.44,12.15,12.15,0,0,1-1.44-4.88,1.85,1.85,0,0,0-.72-1.55,14,14,0,0,0-1-6.58c-1.24-3.14-.92-6.27-.69-9.45,0-.33,0-.67,0-1a29.07,29.07,0,0,1,.29-4.06,14.43,14.43,0,0,0,.07-2.63c-.27-5.23,1-10,4.69-13.84a34.35,34.35,0,0,1,3.84-3.59,4.16,4.16,0,0,1,3.72-.76,21,21,0,0,0,8.18.56A18.28,18.28,0,0,0,1108,476a4.11,4.11,0,0,1,4.08.23,21.07,21.07,0,0,1,8.31,8.56,10.82,10.82,0,0,1,1.3,5.06,100.41,100.41,0,0,0,1.45,12.95c.11.71.2,1.43.35,2.13a10.2,10.2,0,0,1-.46,6.54,13.65,13.65,0,0,0-.67,4.22c-.41.35-.28.83-.22,1.23a12.69,12.69,0,0,1-2.73,9.82,4.14,4.14,0,0,0-.64,3.31C1119,531.48,1118.76,533.05,1120,534.19Z" transform="translate(-1013.95 -454.22)"/><path class="cls-10" d="M1091.43,532.78a12.69,12.69,0,0,1,3.06,2,11.84,11.84,0,0,0,9.07,2.37c1.28-.19,2.59-.25,3.88-.5a9.68,9.68,0,0,0,4-1.72c.23-.18.41-.55.8-.32s.27.54.28.86a13.81,13.81,0,0,1-1.33,5.41,40,40,0,0,1-8.7,13.57,3.14,3.14,0,0,0-1,1.59c-.52.46-1.06.16-1.57,0a23.58,23.58,0,0,1-7.2-4.39,10.13,10.13,0,0,1-1.51-1.35l-.76-2.15a15,15,0,0,1,.51-3.4,65.69,65.69,0,0,0,.69-9.61c0-.55-.29-1.06-.22-1.63Z" transform="translate(-1013.95 -454.22)"/><path class="cls-3" d="M1122.87,502.77a49.48,49.48,0,0,1-1.36-11.13c.21-6.86-5-12.95-10.52-15.56a2.67,2.67,0,0,0-2.43.07,19.5,19.5,0,0,1-14.43,1.05,2.56,2.56,0,0,0-2.27.39,23.87,23.87,0,0,0-7.16,7.61,16.49,16.49,0,0,0-2,8.53,60.88,60.88,0,0,1-.46,8.11c-.07.18-.17.31-.4.23-.16-2.15-.27-4.3-.49-6.44-.64-6.24,1.77-11.32,6-15.66a55.4,55.4,0,0,1,5.72-5.1c4.73-3.68,10-4.19,15.36-2.08a27.69,27.69,0,0,1,14.61,13.34,9.25,9.25,0,0,1,1.08,3.52,28.85,28.85,0,0,0,.83,4.71,12,12,0,0,1-.72,7.49C1124,502.45,1123.74,503.08,1122.87,502.77Z" transform="translate(-1013.95 -454.22)"/><path class="cls-5" d="M1122.87,502.77c.64,0,.94-.59,1.38-.92.46-.11.93-.19,1.38-.32a2.88,2.88,0,0,1,3.94,2.82c.13,2.06-.8,3.8-1.67,5.52a30.82,30.82,0,0,0-2,4.86c-.85,2.63-1.55,2.83-3.57,1a5,5,0,0,1,.34-4.27c1.19-2.57.68-5.06.27-7.6C1122.94,503.48,1122.91,503.13,1122.87,502.77Z" transform="translate(-1013.95 -454.22)"/><path class="cls-5" d="M1082.29,502.77a21.15,21.15,0,0,1-.15,4.05,6.52,6.52,0,0,0,.49,3.74,34.94,34.94,0,0,1,1.56,6.84c.09.47.45,1.24-.44,1.51a1.76,1.76,0,0,1-1.81-1.86,14.59,14.59,0,0,0-1.25-4,9.67,9.67,0,0,1-.61-5.6,15.65,15.65,0,0,0,0-2.74c0-1.5.25-1.73,1.74-1.69C1082,503,1082,502.7,1082.29,502.77Z" transform="translate(-1013.95 -454.22)"/><path class="cls-11" d="M1091.45,533.51c.76,1.23.55,2.65.52,3.94a41.69,41.69,0,0,1-1.25,10.19,3.44,3.44,0,0,1-.25.51c-1.06-1.79-.8-3.67-.38-5.55a68.14,68.14,0,0,0,1.24-6.94c.07-.6.28-1.26-.36-1.72Z" transform="translate(-1013.95 -454.22)"/><path class="cls-12" d="M1082.29,502.77c-.16.07-.16.39-.43.29l0-1,.4-.23Z" transform="translate(-1013.95 -454.22)"/><path class="cls-13" d="M1055.48,612.21l-5,0,.51-1.88a3.34,3.34,0,0,1,.75-1.84,46.43,46.43,0,0,1,4-5.63,67.09,67.09,0,0,0,5.68-10c.76,1.53.62,3.2.63,4.81a106,106,0,0,1-.37,14.58Z" transform="translate(-1013.95 -454.22)"/><path class="cls-5" d="M1091.23,550.3c1.27.25,1.87,1.41,2.84,2.08a26.77,26.77,0,0,0,5.83,3.34,3.23,3.23,0,0,0,1.61.34,32.71,32.71,0,0,0,7.46.49c.29,0,.71-.16.81.25s-.31.41-.53.57a9.29,9.29,0,0,1-2.22,1.13c-.18.07-.62,0-.46.46a.54.54,0,0,1-.52.17.79.79,0,0,0-.58,0,10.32,10.32,0,0,1-4.91.78,12.77,12.77,0,0,1-9.28-8.85A3.3,3.3,0,0,1,1091.23,550.3Z" transform="translate(-1013.95 -454.22)"/><path class="cls-14" d="M1095.75,589.64a9.87,9.87,0,0,1-4.4,2.54,4.11,4.11,0,0,1-4.83-1.67,7.36,7.36,0,0,1-.91-6.84c.79-2.27,3.43-3.21,6.26-2.26a12.89,12.89,0,0,1,6,4.61,23.15,23.15,0,0,0,2.91,3.48c2.17,1.85,4.55,3.17,7.54,2.31a5.87,5.87,0,0,0,4-3.68,4.06,4.06,0,0,0-5-5.55c-.94.29-1.83.74-2.74,1.12-.27.09-.34-.05-.32-.28a7.91,7.91,0,0,1,4.62-1.72,4.65,4.65,0,0,1,4.61,6.34c-1.6,4.69-6.32,6.34-10.94,3.83a12.94,12.94,0,0,1-4.34-4,15.93,15.93,0,0,0-5.06-5c-2.21-1.24-4.43-1.29-5.84-.12s-1.69,3.68-1,5.84c1,2.88,3.18,3.84,5.94,2.54,1.11-.53,2.19-1.13,3.29-1.69C1095.74,589.3,1095.8,589.41,1095.75,589.64Z" transform="translate(-1013.95 -454.22)"/><path class="cls-15" d="M1100.56,559.86c1.85-.07,3.63-.72,5.49-.73C1104.27,559.74,1102.49,560.37,1100.56,559.86Z" transform="translate(-1013.95 -454.22)"/><path class="cls-16" d="M1103.44,584.33a2.33,2.33,0,0,1-1.17.73c.07-.63.53-.75.92-.93C1103.42,584,1103.46,584.14,1103.44,584.33Z" transform="translate(-1013.95 -454.22)"/><path class="cls-17" d="M1103.44,584.33l-.25-.2a1.85,1.85,0,0,1,1-.71l.32.28Z" transform="translate(-1013.95 -454.22)"/><path class="cls-18" d="M1095.75,589.64l-.27-.26a1,1,0,0,1,1-.41A1.32,1.32,0,0,1,1095.75,589.64Z" transform="translate(-1013.95 -454.22)"/><path class="cls-5" d="M1055.71,602.84a4.24,4.24,0,0,1-1.11,1.94,37,37,0,0,0-3.66,5.53,1.22,1.22,0,0,1-1-.68,9,9,0,0,0-1.81-2.34,44.29,44.29,0,0,0-8.42-7.16c-.16-.12-.35-.19-.5-.32s-.64-.49-.36-.88.59-.17.88,0a39.37,39.37,0,0,0,3.71,1.63,30.4,30.4,0,0,0,10.7,2.05A2.75,2.75,0,0,1,1055.71,602.84Z" transform="translate(-1013.95 -454.22)"/></g><circle class="cls-1" cx="79.23" cy="79.23" r="78.11"/></svg>